<?xml version="1.0" standalone="no"?>
<!DOCTYPE svg PUBLIC "-//W3C//DTD SVG 1.1//EN" "http://www.w3.org/Graphics/SVG/1.1/DTD/svg11.dtd" >
<!--
2013-9-30: Created.
-->
<svg>
<metadata>
Created by iconfont
</metadata>
<defs>

<font id="iconfont" horiz-adv-x="1024" >
  <font-face
    font-family="iconfont"
    font-weight="500"
    font-stretch="normal"
    units-per-em="1024"
    ascent="896"
    descent="-128"
  />
    <missing-glyph />
    
    <glyph glyph-name="gengduo1" unicode="&#58880;" d="M407.55900001 40.456999999999994c0-57.676 46.73799999-104.453 104.453-104.453 57.695 0 104.43299999 46.758 104.43299999 104.453S569.707 144.90999999999997 512.01200001 144.90999999999997c-57.715-0.02-104.453-46.777-104.453-104.453z m-1e-8 333.125c0-57.676 46.73799999-104.453 104.453-104.453 57.695 0 104.43299999 46.758 104.433 104.45299999s-46.73799999 104.453-104.433 104.45300001c-57.71500001 0-104.453-46.758-104.453-104.453z m0 353.965c0-57.695 46.73799999-104.453 104.453-104.453 57.695 0 104.43299999 46.758 104.433 104.45300001S569.707 832 512.012 832c-57.71500001 0-104.453-46.777-104.453-104.453z"  horiz-adv-x="1024" />

    
    <glyph glyph-name="xinaixin" unicode="&#58892;" d="M969.04 722.632a289.66 289.66 0 0 1-397.153 8.732 289.66 289.66 0 0 1-397.153-8.732 283.637 283.637 0 0 1 0-403.777L507.451-10.85a90.33 90.33 0 0 1 128.872 0L969.04 318.554a283.637 283.637 0 0 1 0 404.078z m-43.058-361.321L593.265 31.605a30.11 30.11 0 0 0-42.756 0L217.49 361.31a224.02 224.02 0 0 0 0 318.866 228.536 228.536 0 0 0 313.446 5.119l40.95-35.23 40.649 35.23a228.536 228.536 0 0 0 313.446-6.625 224.02 224.02 0 0 0 0-317.36zM368.644 655.186a127.968 127.968 0 0 1-127.968-127.969 15.055 15.055 0 0 1 30.11 0 97.858 97.858 0 0 0 97.858 97.858 15.055 15.055 0 0 1 0 30.11z"  horiz-adv-x="1170" />

    
    <glyph glyph-name="xiaoxi" unicode="&#58893;" d="M144 41.60000000000002c-13.1 0-23.8 10.6-23.8 23.8V678.1c0 13.1 10.6 23.8 23.8 23.8h735.4c13.1 0 23.8-10.6 23.8-23.8v-601.7c0.1-9.1-3.4-17.8-9.9-24.5-6.7-6.7-15.4-10.3-24.7-10.3H144zM856.8 88V655.5H166.6V88h690.2zM511.7 347.29999999999995c-5.4 0-10.7 1.9-14.8 5.4L132.6 657.6l32.9 32.9 346.3-289.8 347.7 291.2 32.9-32.9-365.8-306.2c-4.2-3.5-9.5-5.5-14.9-5.5z"  horiz-adv-x="1024" />

    
    <glyph glyph-name="gexingzhuangban" unicode="&#58963;" d="M657.066667 21.333333H352c-59.733333 0-106.666667 46.933333-106.666667 106.666667v6.4l12.8 247.466667c-2.133333-2.133333-6.4-4.266667-8.533333-4.266667-14.933333-6.4-32-6.4-46.933333 0-6.4 2.133333-12.8 6.4-19.2 12.8l-83.2 81.066667c-25.6 23.466667-25.6 64-2.133334 89.6l145.066667 160c19.2 21.333333 44.8 34.133333 74.666667 34.133333 27.733333 2.133333 55.466667-8.533333 76.8-27.733333 2.133333 0 2.133333-2.133333 4.266666-4.266667 25.6-25.6 59.733333-36.266667 106.666667-36.266667s83.2 12.8 106.666667 36.266667c19.2 19.2 46.933333 32 74.666666 32 27.733333 0 55.466667-10.666667 74.666667-32l4.266667-4.266667 145.066666-160c23.466667-25.6 21.333333-64-2.133333-89.6l-83.2-81.066666c-10.666667-10.666667-25.6-17.066667-42.666667-17.066667-10.666667 0-21.333333 4.266667-32 8.533333l12.8-247.466666c2.133333-59.733333-42.666667-108.8-100.266666-113.066667-4.266667 2.133333-4.266667 2.133333-6.4 2.133333zM270.933333 443.733333c19.2 0 32-14.933333 32-32L288 128c0-36.266667 27.733333-64 64-64H661.333333c36.266667 2.133333 61.866667 32 59.733334 68.266667l-14.933334 279.466666c0 12.8 6.4 25.6 19.2 29.866667 8.533333 2.133333 17.066667 2.133333 23.466667 0 8.533333-4.266667 12.8-8.533333 17.066667-17.066667 0-2.133333 2.133333-4.266667 4.266666-6.4 4.266667-4.266667 8.533333-6.4 12.8-6.4 4.266667 0 8.533333 2.133333 12.8 4.266667l83.2 81.066667c8.533333 8.533333 8.533333 21.333333 0 29.866666l-147.2 162.133334c-12.8 12.8-27.733333 19.2-44.8 19.2s-34.133333-6.4-44.8-19.2c-32-32-78.933333-49.066667-136.533333-49.066667s-104.533333 17.066667-136.533333 49.066667l-2.133334 2.133333c-12.8 10.666667-29.866667 17.066667-46.933333 17.066667-17.066667 0-32-8.533333-44.8-21.333334L128 529.066667c-8.533333-8.533333-6.4-21.333333 0-29.866667l83.2-81.066667c2.133333-2.133333 4.266667-2.133333 6.4-4.266666 4.266667-2.133333 8.533333-2.133333 12.8 0 4.266667 2.133333 8.533333 4.266667 10.666667 10.666666 4.266667 10.666667 17.066667 19.2 29.866666 19.2zM725.333333 407.466667c2.133333 0 2.133333 0 0 0 2.133333 0 2.133333 0 0 0z m23.466667 6.4z"  horiz-adv-x="1024" />

    
    <glyph glyph-name="gedan" unicode="&#58886;" d="M770.052 582.888h-515.22c-24.008 0-43.598-19.59-43.598-43.597v-494.157c0-24.008 19.59-43.598 43.598-43.598h515.22c24.008 0 43.597 19.59 43.597 43.598v494.01c0 24.155-19.59 43.744-43.597 43.744z m15.76-537.754c0-8.69-7.07-15.76-15.76-15.76h-515.22c-8.69 0-15.76 7.07-15.76 15.76v494.01c0 8.69 7.07 15.76 15.76 15.76h515.22c8.69 0 15.76-7.07 15.76-15.76v-494.01zM277.22 640.479h470.296c7.66 0 13.993 6.186 13.993 13.992s-6.186 13.993-13.993 13.993H277.22c-7.659 0-13.992-6.186-13.992-13.993s6.333-13.992 13.992-13.992z m44.629 86.9h381.038c6.923 0 12.52 5.598 12.52 12.52s-5.597 12.52-12.52 12.52H321.85c-6.923 0-12.52-5.597-12.52-12.52s5.597-12.52 12.52-12.52zM634.103 444.289l-194.57-31.962c-3.387-0.59-5.891-3.535-5.891-6.923v-173.949c0-13.403-9.721-24.744-22.977-26.66l-19-2.798c-16.203-2.356-28.133-16.349-28.133-32.55v-3.388c0-20.18 17.97-35.644 37.853-32.551l24.892 3.682c22.978 3.387 39.916 23.124 39.916 46.396V332.643c0 3.535 2.504 6.481 5.891 6.923l129.615 21.21c4.272 0.736 8.249-2.652 8.249-6.923v-94.56c0-13.403-9.721-24.745-22.978-26.66l-19-2.798c-16.202-2.357-28.132-16.35-28.132-32.551v-3.388c0-20.178 17.97-35.644 37.853-32.55l24.892 3.682c22.977 3.387 39.916 23.124 39.916 46.396V437.366c-0.148 4.419-4.124 7.66-8.396 6.923z"  horiz-adv-x="1024" />

    
    <glyph glyph-name="search2" unicode="&#58887;" d="M514.56 5.119999989999997A427.52 427.52 0 1 0 942.08 432.64a428.032 428.032 0 0 0-427.52-427.52000001z m0 793.6A366.08 366.08 0 1 1 880.64 432.64 366.5408 366.5408 0 0 1 514.56 798.71999999zM906.24-102.39999998999997a30.72 30.72 0 0 0-23.9104 11.46879999l-148.48 184.32a30.72 30.72 0 1 0 47.8208 38.5024l148.48-184.32a30.72 30.72 0 0 0-4.6592-43.1616A30.208 30.208 0 0 0 906.24-102.39999998999997z"  horiz-adv-x="1024" />

    
    <glyph glyph-name="wodediantai" unicode="&#58888;" d="M642.12 98.45299999999997l-24.4223 41.8691c65.5421 38.225 106.257 109.043 106.257 184.818 0 117.881-95.9037 213.786-213.784 213.786-117.88 0-213.781-95.9037-213.781-213.786a215.263 215.263 0 0 1 5.17175-46.9788l-47.2962-10.5965a263.781 263.781 0 0 0-6.34428 57.5753c0 144.607 117.644 262.254 262.249 262.254 144.606 0 262.251-117.646 262.251-262.254 0-46.6893-12.4331-92.5394-35.9493-132.597-22.807-38.8551-55.4346-71.3914-94.3517-94.0902ZM582.596 345.23l-88.483 111.633-2.491-158.819s99.9224 8.77447 60.3169-74.2533l16.9383-12.483-0.386787-0.26394 0.726138-0.008514c-0.001216-0.004865 77.7746 44.8296 13.3794 134.194ZM562.892 220.48900000000003m-11.5294 0a11.5294 11.5294 0 1 1 23.0588 0 11.5294 11.5294 0 1 1-23.0588 0ZM496.979 66.65200000000004c-0.325971-18.4587-12.6569-33.3464-27.3986-33.0861-14.7478 0.249344-26.5472 15.5627-26.2212 34.0251l6.35401 361.856c0.323539 18.4575 12.6545 33.3452 27.3986 33.0861 14.7466-0.252993 26.546-15.5676 26.2212-34.0251l-6.35401-361.856ZM492.127 89.61500000000001a124.24700000000001 72.435 26.735000000000006 1 1-221.93-111.789 124.24700000000001 72.435 26.735000000000006 1 1 221.93 111.789ZM694.767 9.268000000000029l-24.415 41.8679c96.1336 56.0671 155.856 159.946 155.856 271.104 0 172.919-140.681 313.6-313.599 313.6-172.919 0-313.599-140.681-313.599-313.6 0-23.2619 2.55182-46.4448 7.58613-68.8991l-47.295-10.6014C153.488 268.669 150.541 295.41600000000005 150.541 322.23900000000003c0 96.7125 37.6606 187.637 106.048 256.022 68.3859 68.3859 159.309 106.047 256.02 106.047s187.635-37.6606 256.019-106.048c68.3871-68.3859 106.048-159.31 106.048-256.021 0-64.462-17.1597-127.763-49.6231-183.061-31.4952-53.6466-76.5461-98.5711-130.285-129.911ZM182.947 248.04100000000005m-23.6816 0a23.6816 23.6816 0 1 1 47.3631 0 23.6816 23.6816 0 1 1-47.3631 0ZM682.588 30.215000000000032m-23.6804 0a23.6804 23.6804 0 1 1 47.3607 0 23.6804 23.6804 0 1 1-47.3607 0ZM277.379 299.35299999999995c12.9926 0 23.5235-10.5296 23.5235-23.5259 0-12.9938-10.5308-23.5235-23.5235-23.5235-12.9951 0-23.5247 10.5296-23.5247 23.5235-0.001216 12.9963 10.5284 23.5259 23.5247 23.5259ZM630.02 119.26999999999998m-23.6791 0a23.6791 23.6791 0 1 1 47.3583 0 23.6791 23.6791 0 1 1-47.3583 0Z"  horiz-adv-x="1024" />

    
    <glyph glyph-name="huiyuan1" unicode="&#59085;" d="M830.006171 894.902882h-407.396402c-47.688053 0-91.060776-17.334461-125.729698-52.003383L19.528696 552.528994A68.021302 68.021302 0 0 1 19.528696 457.152888l546.07209-559.091221a88.939681 88.939681 0 0 1 125.729698 0L1237.402574 457.152888a68.021302 68.021302 0 0 1 0 95.376106L955.735869 838.511028C925.382277 877.641562 877.694224 894.976023 830.006171 894.976023zM19.528696 552.528994A68.021302 68.021302 0 0 1 19.528696 457.152888l8.63066-13.019131c4.388471 52.003383 13.019131 104.006766 30.353592 151.694818l-38.984252-43.299581z m1217.873878 0l-138.675688 142.991017c47.688053-82.356975 73.726315-177.73308 73.726315-281.739846v-21.649791L1237.402574 457.152888a68.021302 68.021302 0 0 1 0 95.376106zM149.500583 686.81621L58.512948 591.586387C41.178487 543.825193 32.474686 491.82181 28.159356 439.818427l56.318713-56.318713c0 17.334461-4.31533 34.668922-4.31533 51.930242 4.388471 95.376106 26.038262 182.121552 69.337844 251.459395z m949.226303 8.776942L955.735869 842.826358a173.564033 173.564033 0 0 1-125.729698 52.003383h-60.707184c177.73308-73.653174 299.147448-251.386254 299.147449-455.084455 0-69.337844-13.019131-134.360357-39.057393-195.067541l143.064158 147.379488v21.649791c0 104.079907-26.038262 199.382871-73.726315 281.739846z m-585.129483-745.528102l52.003383-52.003383a88.939681 88.939681 0 0 1 125.729698 0l90.987634 95.302965c-60.707184-30.353592-134.360357-43.299582-208.013531-43.299582a142.625311 142.625311 0 0 0-60.707184 0zM769.372129 894.902882H422.609769c-47.688053 0-91.060776-17.334461-125.729698-52.003383L149.500583 686.889351c-43.299582-69.337844-64.949373-156.08329-64.949373-247.070924 0-17.334461 0-34.668922 4.31533-52.003383L175.538845 296.754268a436.214029 436.214029 0 0 0-34.668922 169.02928A416.173345 416.173345 0 0 0 556.970126 881.956892a416.173345 416.173345 0 0 0 416.100204-416.173344 416.173345 416.173345 0 0 0-416.173345-416.027062c-64.949373 0-125.656556 12.94599-177.659939 38.984251l138.748829-143.064158c21.649791-4.31533 43.299582-4.31533 64.949372-4.31533 73.726315 0 143.064159 17.334461 208.086672 43.372723l247.070925 251.386254c25.965121 60.707184 38.984252 125.656556 38.984251 194.9944-4.388471 212.402002-130.045028 390.135083-307.704966 463.788256zM968.681859 465.783548A416.173345 416.173345 0 0 1 552.654796 881.956892a416.173345 416.173345 0 0 1-416.173344-416.173344c0-60.707184 13.019131-117.025897 34.742063-168.956138l203.698201-208.086673c52.003383-26.038262 112.637425-38.984252 177.73308-38.984251a416.173345 416.173345 0 0 1 416.027063 416.027062zM188.557976 496.13714A338.497406 338.497406 0 0 0 526.616534 834.26884a338.497406 338.497406 0 0 0 338.058559-338.1317A338.497406 338.497406 0 0 0 526.616534 158.078581a338.497406 338.497406 0 0 0-338.058558 338.058559zM864.675093 496.13714A338.497406 338.497406 0 0 1 526.616534 834.26884a338.497406 338.497406 0 0 1-338.058558-338.1317A338.497406 338.497406 0 0 1 526.616534 158.078581a338.497406 338.497406 0 0 1 338.058559 338.058559z m-359.708349-234.051793A260.821467 260.821467 0 0 0 244.876689 522.248543c0 142.991017 117.025897 260.016914 260.090055 260.016914 142.991017 0 260.016914-117.025897 260.016914-260.016914 0-143.064159-117.025897-260.090055-260.016914-260.090055zM504.966744 777.876986A260.821467 260.821467 0 0 1 244.876689 517.860072c0-143.064159 117.025897-260.090055 260.090055-260.090055 142.991017 0 260.016914 117.025897 260.016914 260.090055 0 142.991017-117.025897 260.016914-260.016914 260.016914z m-26.038262-411.784874a183.145528 183.145528 0 0 0-182.048411 182.121552 183.145528 183.145528 0 0 0 182.121552 181.975269 183.145528 183.145528 0 0 0 181.975269-182.04841 183.145528 183.145528 0 0 0-182.04841-181.97527zM296.953212 548.140523a183.145528 183.145528 0 0 1 181.97527-181.97527 183.145528 183.145528 0 0 1 182.04841 181.97527 183.145528 183.145528 0 0 1-182.04841 182.121551 183.145528 183.145528 0 0 1-182.048411-182.121551zM830.006171 868.937761c21.649791 0 38.984252-4.388471 56.318713-13.019131 17.407602-8.703801 34.742063-17.334461 47.688053-34.668921l281.739846-286.055176a47.102923 47.102923 0 0 0 0-65.095655l-541.75676-554.70275a62.096866 62.096866 0 0 0-43.372723-17.334461 66.192773 66.192773 0 0 0-43.299582 17.334461L36.863157 474.487349a47.176065 47.176065 0 0 0 0 65.022514L318.603003 825.565039c12.94599 13.019131 30.280451 26.038262 47.614912 34.668921 17.334461 8.703801 39.057393 13.019131 56.318713 13.019131l407.469543-4.388471z m0 25.965121h-407.396402c-47.688053 0-91.060776-17.334461-125.729698-52.003383L19.528696 552.528994A68.021302 68.021302 0 0 1 19.528696 457.152888l546.07209-559.091221c17.334461-17.407602 39.057393-26.038262 60.707184-26.038262 21.649791 0 43.372723 8.63066 60.707184 26.038262L1233.087244 457.152888a68.021302 68.021302 0 0 1 0 95.376106L951.347398 838.511028C925.382277 877.641562 877.694224 894.976023 830.006171 894.976023zM231.857558 626.182167a32.913533 32.913533 0 0 0-17.334461 8.703801 26.330827 26.330827 0 0 0 0 34.668922l117.025896 121.341227a26.330827 26.330827 0 0 0 34.668922 0 26.330827 26.330827 0 0 0 0-34.668922l-117.025897-121.414368c-4.31533-8.63066-8.63066-8.63066-17.33446-8.63066z m-65.022514-69.337843a32.840392 32.840392 0 0 0-17.334461 8.703801 26.330827 26.330827 0 0 0 0 34.668921l8.703801 8.63066a26.330827 26.330827 0 0 0 34.668922 0 26.330827 26.330827 0 0 0 0-34.668922l-8.63066-8.630659a32.767251 32.767251 0 0 0-17.407602-8.703801zM444.25956 305.45807L348.883454 574.178784h60.707184l69.337844-199.382871 65.022513 199.382871h56.318713L504.966744 305.45807h-60.707184z m182.04841 0h56.318713V574.178784h-56.318713v-268.720714z m108.322096 0V574.178784h86.745445c34.668922 0 56.318713 0 65.022514-4.388471 17.334461-4.242189 30.280451-12.94599 38.984252-25.96512 8.63066-13.019131 17.334461-30.353592 17.334461-51.930242 0-17.407602-4.388471-30.426733-8.703801-43.372723a44.3967 44.3967 0 0 0-21.649791-26.038262l-25.965121-13.019131c-13.019131-4.388471-30.353592-4.388471-56.318713-4.388471h-34.742063v-99.618294h-60.707183z m52.076524 225.347992v-77.968504h30.28045c21.722932 0 34.668922 0 43.372723 4.31533A59.610066 59.610066 0 0 1 877.694224 470.172019c4.388471 4.31533 4.388471 13.019131 4.388471 21.649791 0 8.703801-4.388471 17.334461-8.776942 26.038262-4.31533 8.63066-12.94599 8.63066-21.649791 12.94599h-64.949372z"  horiz-adv-x="1316" />

    
    <glyph glyph-name="pinglun2" unicode="&#59228;" d="M1013.001481 176.924444c0-4.28563-3.413333-7.698963-7.585185-7.698963h-246.442666c-20.935111 0-40.732444-7.964444-55.826963-22.528l-157.771852-152.917333-159.061334 153.144889a79.644444 79.644444 0 0 1-55.523555 22.300444H83.437037c-4.171852 0-7.585185 3.413333-7.585185 7.661038V812.562963a7.585185 7.585185 0 0 0 7.585185 7.585185h921.979259a7.585185 7.585185 0 0 0 7.585185-7.585185v-635.638519zM1005.416296 896H83.437037C37.470815 896 0 858.453333 0 812.562963v-635.638519c0-46.004148 37.470815-83.550815 83.437037-83.550814l250.386963-1.137778L545.526519-111.691852l213.447111 205.103408h246.442666c45.966222 0 83.437037 37.546667 83.437037 83.512888V812.562963c0 45.966222-37.470815 83.437037-83.437037 83.437037zM273.901037 547.612444a69.214815 69.214815 0 1 1 69.252741-69.176888 69.214815 69.214815 0 0 1-69.252741 69.176888M545.488593 547.612444a69.214815 69.214815 0 1 1 69.25274-69.176888 69.214815 69.214815 0 0 1-69.25274 69.176888M747.899259 478.435556a69.214815 69.214815 0 1 1 69.176889 69.176888 69.138963 69.138963 0 0 1-69.176889-69.176888z"  horiz-adv-x="1099" />

    
    <glyph glyph-name="gedan1" unicode="&#58936;" d="M964.608 661.504c-46.08 52.565333-104.789333 93.696-169.642667 118.784a34.030933 34.030933 0 0 1-46.421333-31.744v-420.352a178.005333 178.005333 0 0 1-110.933333 38.741333c-98.816 0-179.2-80.384-179.2-179.2S538.794667 8.533333 637.610667 8.533333s179.2 80.384 179.2 179.2c0 1.877333-0.170667 3.754667-0.341334 5.632 0 1.024 0.341333 1.877333 0.341334 2.901334V694.784c36.181333-20.309333 69.12-46.933333 96.597333-78.165333 12.458667-14.165333 34.133333-15.530667 48.128-3.072 14.165333 12.288 15.530667 33.792 3.072 47.957333zM637.610667 76.8c-61.098667 0-110.933333 49.834667-110.933334 110.933333s49.834667 110.933333 110.933334 110.933334 110.933333-49.834667 110.933333-110.933334-49.834667-110.933333-110.933333-110.933333zM185.344 588.8h392.533333c18.773333 0 34.133333 15.36 34.133334 34.133333s-15.36 34.133333-34.133334 34.133334h-392.533333a34.133333 34.133333 0 1 1 0-68.266667zM424.277333 435.2h-238.933333c-18.773333 0-34.133333-15.36-34.133333-34.133333s15.36-34.133333 34.133333-34.133334h238.933333c18.773333 0 34.133333 15.36 34.133334 34.133334s-15.36 34.133333-34.133334 34.133333zM321.877333 213.333333h-136.533333c-18.773333 0-34.133333-15.36-34.133333-34.133333s15.36-34.133333 34.133333-34.133333h136.533333c18.773333 0 34.133333 15.36 34.133334 34.133333s-15.36 34.133333-34.133334 34.133333z"  horiz-adv-x="1024" />

    
    <glyph glyph-name="iconsMusicyemianbofangmoshiPlayList" unicode="&#58999;" d="M819.2 108.928l-108.6208 82.9952L819.2 274.944v-166.016zM192 640h588.8a38.4 38.4 0 0 0 0-76.8h-588.8a38.4 38.4 0 0 0 0 76.8z m0-204.8h588.8a38.4 38.4 0 0 0 0-76.8h-588.8a38.4 38.4 0 0 0 0 76.8z m0-204.8h409.6a38.4 38.4 0 0 0 0-76.8h-409.6a38.4 38.4 0 0 0 0 76.8z"  horiz-adv-x="1024" />

    
    <glyph glyph-name="iconsMusicyemianbofangmoshiAlrepeatOne" unicode="&#58998;" d="M411.3152 115.2v-71.3728l-108.6208 108.6208 108.6208 108.6208V192H640a166.4 166.4 0 0 1 166.4 166.4v128a38.4 38.4 0 0 0 76.8 0v-128a243.2 243.2 0 0 0-243.2-243.2h-228.6848z m229.5296 512V699.4432l108.5952-108.6208-108.5952-108.5952V550.4H409.6A166.4 166.4 0 0 1 243.2 384v-128a38.4 38.4 0 0 0-76.8 0v128a243.2 243.2 0 0 0 243.2 243.2h231.2448z m-123.2128-128.1024h22.9376V243.2h-29.3888v220.0576c-16.128-16.4864-36.1984-27.9552-60.2112-35.1232v29.3888a152.32 152.32 0 0 1 35.84 15.4112 148.4032 148.4032 0 0 1 30.8224 26.1632z"  horiz-adv-x="1024" />

    
    <glyph glyph-name="iconsMusicyemianbofangmoshiRepeat" unicode="&#59000;" d="M411.3152 115.2v-71.3728l-108.6208 108.6208 108.6208 108.6208V192H640a166.4 166.4 0 0 1 166.4 166.4v128a38.4 38.4 0 0 0 76.8 0v-128a243.2 243.2 0 0 0-243.2-243.2h-228.6848z m229.5296 512V699.4432l108.5952-108.6208-108.5952-108.5952V550.4H409.6A166.4 166.4 0 0 1 243.2 384v-128a38.4 38.4 0 0 0-76.8 0v128a243.2 243.2 0 0 0 243.2 243.2h231.2448z"  horiz-adv-x="1024" />

    
    <glyph glyph-name="prev" unicode="&#58889;" d="M180.125 786.6659999999999l0-725.624c0-15.53200001 12.593-28.12500001 28.125-28.12499999s28.12500001 12.593 28.125 28.12499999l0 725.624c0 15.53200001-12.593 28.12500001-28.125 28.125s-28.12500001-12.593-28.125-28.125v0zM747.923 750.284v0l-355.388-290.997c-24.067-19.706-24.112-51.756 0-71.498l355.388-290.997c24.067-19.706 43.66-10.55 43.66 20.536l0 612.421c0 31.329-19.54799999 40.28-43.66 20.536v0zM712.287 793.8050000000001v0c60.75 49.743 135.547 14.85 135.547-64.058l0-612.421c0-78.646-74.83000001-113.772-135.547-64.057l-355.388 290.99700001c-51.592 42.244-51.559 116.326 0 158.54199999l355.388 290.997z"  horiz-adv-x="1024" />

    
    <glyph glyph-name="zanpress" unicode="&#58890;" d="M905.6 550.369c-37.44 9.79125-125.472 9.6-254.304 13.0556 6.14437 28.1278 7.48875 53.4712 7.48875 98.4C658.88 769.344 580.544 864 511.231 864c-48.9591 0-89.2791-40.0313-89.8556-89.1844-0.67125-60.2878-19.2-164.447-119.808-217.343-7.39219-3.84-28.4156-14.2078-31.4878-15.6478l1.53562-1.34438a95.04 95.04 0 0 1-59.9034 24H121.856A89.9522 89.9522 0 0 1 32 474.624V-4.7999999999999545c0-49.5356 40.32-89.8556 89.8556-89.8556h89.8566a88.8 88.8 0 0 1 79.9678 51.7434l1.34438-0.384375 7.2-1.91906c0.48 0 0.767812-0.0965625 1.34344-0.28875 17.28-4.32 50.4966-12.1912 121.44-28.5112 15.36-3.45656 95.6156-20.64 178.944-20.64h163.776c49.92 0 86.88 18.6234 107.232 57.7912 19.9688 34.7531 117.696 221.28 117.6 484.224 0 37.8244-26.2078 86.1122-84.96 102.912ZM241.664-4.7999999999999545c0-16.5122-13.44-29.9522-29.9531-29.9522H121.857a29.9522 29.9522 0 0 0-29.9513 29.9522V474.624c0 16.5112 13.44 29.9513 29.9513 29.9513h89.8566c16.6078 0 29.9522-13.44 29.9522-29.9513V-4.7999999999999545ZM929.984 428.544c-12.48-300.96-109.824-437.184-109.824-437.184-9.12-16.32-23.6156-26.1122-54.5278-26.1122H601.952c-82.2722 0-163.872 18.6244-165.984 19.2-124.416 28.6078-130.943 30.8156-138.72 33.0244l4.32 440.16c0 45.5034 0.96 33.9844 0 33.4078C438.464 547.6800000000001 480.128 672 481.28 774.048A30.0478 30.0478 0 0 0 511.232 804c31.68 0 87.6478-63.5522 87.6478-142.272 0-71.04-2.88-83.2312-27.7444-157.248 299.52 0 297.504-4.32 323.904-11.2312 32.8312-9.40875 35.52-36.4809 35.52-45.8887 0-10.2722-0.192188-8.83125-0.575625-18.8156Z"  horiz-adv-x="1024" />

    
    <glyph glyph-name="zhibobofangshexiangjitianxianxianxing" unicode="&#58891;" d="M578.822512 718.336353L674.219413 877.331189a35.180123 35.180123 0 1 0 60.377786-36.226672l-73.499891-122.768164h184.273002a70.44075 70.44075 0 0 0 70.44075-70.44075V461.368497l161.007428 77.444573a35.180123 35.180123 0 0 0 50.475829-31.718463v-387.705888a35.180123 35.180123 0 0 0-50.475829-31.798967l-161.007428 77.444573v-221.707229a70.44075 70.44075 0 0 0-70.44075-70.44075H70.441556A70.44075 70.44075 0 0 0 0.000806-56.672904v704.4075A70.44075 70.44075 0 0 0 70.441556 718.175346h184.353506L181.134164 840.94351A35.260627 35.260627 0 1 0 241.511949 877.250685l95.477405-158.994836z m20.528447-70.44075H70.441556v-704.4075H845.289806v704.4075H599.350959z m316.379597-265.018227v-139.190922l138.385885-66.657076V449.453947l-138.385885-66.657075z m-563.526-203.754901V447.441355a35.180123 35.180123 0 0 0 52.166407 30.832922l243.926254-134.119188a35.180123 35.180123 0 0 0 0-61.746349L404.370963 148.209049a35.180123 35.180123 0 0 0-52.166407 30.913426z m70.360247 211.241746v-154.084109l140.076462 77.042055z"  horiz-adv-x="1129" />

    
    <glyph glyph-name="zanting" unicode="&#59203;" d="M511.505087-126.760912C228.38603-126.760912 0.617738 101.010993 0.617738 384.122825 0.617738 667.241882 228.38603 895.010174 511.505087 895.010174c283.111832 0 510.880124-227.768292 510.880124-510.887349 0-283.111832-227.768292-510.883737-510.880124-510.883737z m0 42.573344c259.69559 0 468.310393 208.614803 468.310393 468.310393 0 259.702815-208.614803 468.314006-468.310393 468.314006-259.702815 0-468.314006-208.614803-468.314005-468.314006 0-259.69559 208.61119-468.310393 468.314005-468.310393zM405.066309 596.993156c12.773809 0 21.288478-8.518281 21.288478-21.288478v-383.163706c0-12.773809-8.511056-21.288478-21.288478-21.288478-12.770197 0-21.288478 8.511056-21.288478 21.288478V575.704678c0 12.770197 8.518281 21.288478 21.288478 21.288478z m212.870331 0c12.770197 0 21.288478-8.518281 21.288478-21.288478v-383.163706c0-12.773809-8.514669-21.288478-21.288478-21.288478-12.773809 0-21.288478 8.511056-21.288478 21.288478V575.704678c0 12.770197 8.514669 21.288478 21.288478 21.288478z m0 0"  horiz-adv-x="1024" />

    
    <glyph glyph-name="xiayishouxianxing" unicode="&#59723;" d="M881.777778 782.222222a28.444444 28.444444 0 0 1-28.444445-28.444444v-739.555556a28.444444 28.444444 0 0 1 56.888889 0V753.777778a28.444444 28.444444 0 0 1-28.444444 28.444444z m-112.952889-447.032889a56.888889 56.888889 0 0 1 0 97.592889l-568.974222 341.333334A56.803556 56.803556 0 0 1 113.777778 725.333333v-682.666666a56.803556 56.803556 0 0 1 86.072889-48.782223l568.974222 341.333334zM739.555556 384L170.609778 42.666667V725.333333l568.974222-341.333333z"  horiz-adv-x="1024" />

    
    <glyph glyph-name="bofang" unicode="&#58919;" d="M512 832C264.6 832 64 631.4 64 384s200.6-448 448-448 448 200.6 448 448S759.4 832 512 832z m0-832c-212.1 0-384 171.9-384 384s171.9 384 384 384 384-171.9 384-384-171.9-384-384-384zM384.1 191.8l319.2 192L384.1 576z"  horiz-adv-x="1024" />

    
    <glyph glyph-name="myRecommender" unicode="&#58882;" d="M969.460505 32.31814699999995L863.386181 32.31814699999995C855.84255 60.494887999999946 849.945092 81.54353800000001 830.462705 96.24722599999996L959.503551 96.24722599999996 959.503551 153.08017700000005C955.252267 156.02091399999995 949.450703 159.36120900000003 944.735934 161.35899199999994 942.866008 162.15810599999998 940.612508 163.22891800000002 938.838476 164.18785400000002L734.601052 275.664185C715.741974 285.972749 703.32375 305.03959699999996 701.501771 326.45583799999997 699.72774 347.872079 708.805669 368.74492399999997 725.698928 382.04217200000005 780.85374 425.434034 799.393173 521.0559539999999 799.393173 571.1124219999999L799.393173 706.098672C799.393173 753.102527 714.655179 832.086904 622.309625 832.086904 576.088901 832.086904 533.48017 816.472226 499.789546 790.245322 474.729347 798.236456 445.73751 798.268421 419.414712 799.898612 465.555524 853.870737 544.8116 896.015982 622.309625 896.015982 741.585304 896.015982 863.322252 795.455542 863.322252 706.098672L863.322252 571.1124219999999C863.322252 506.288336 840.00412 390.624651 765.223081 331.79391599999997L969.460505 220.317585C969.460505 220.317585 1023.432629 198.10222999999996 1023.432629 166.313496L1023.432629 86.30625399999997C1023.432629 56.49932100000001 999.235473 32.31814699999995 969.460505 32.31814699999995ZM639.602441 546.931248L639.602441 411.960981C639.602441 347.120913 619.288976 231.457227 544.491954 172.62649199999998L745.740694 61.15016200000002C745.740694 61.15016200000002 799.712819 38.93480699999998 799.712819 7.146072000000004L799.712819-73.85207000000003C799.712819-103.65900299999998 775.515662-127.85616000000005 745.740694-127.85616000000005L54.507531-127.85616000000005C24.764527-127.85616000000005 0.567371-103.65900299999998 0.567371-73.85207000000003L0.567371 7.146072000000004C0.567371 37.112828000000036 54.507531 61.15016200000002 54.507531 61.15016200000002L260.96649 173.121943C185.386337 233.71072700000002 160.453996 352.986406 160.453996 411.960981L160.453996 546.931248C160.453996 636.2881179999999 282.350767 735.841676 401.594481 735.841676 520.87016 735.841676 639.602441 636.2881179999999 639.602441 546.931248ZM575.673362 546.931248C575.673362 593.935103 493.924053 671.912597 401.594481 671.912597 310.943048 671.912597 224.383075 592.848309 224.383075 546.931248L224.383075 411.960981C224.383075 361.16932799999995 247.349597 265.994912 300.954129 223.00260600000001 317.655601 209.609465 326.541743 188.73662000000002 324.639853 167.41627300000005 322.737963 146.09592499999997 310.25581 127.14095299999997 291.428696 116.94426499999997L84.969737 4.972484000000009C83.531332 4.157387999999969 82.044981 3.4381859999999733 80.542648 2.750947999999994 75.492251 0.4335190000000466 69.083361-3.434189999999944 64.496449-6.774485000000027L64.496449-63.927081000000044 735.78374-63.927081000000044 735.78374-6.087247000000048C731.532456-3.1465090000000373 725.730892 0.19378500000004806 721.016123 2.1915689999999586 719.146197 3.0066640000000007 716.892697 4.061494000000039 715.118665 5.020430000000033L513.869926 116.49676099999999C495.02683 126.80532500000004 482.592624 145.87217299999998 480.786627 167.288414 479.012595 188.704656 488.090525 209.5775 504.983784 222.87474799999995 560.138596 266.26661 575.673362 361.88852999999995 575.673362 411.960981L575.673362 546.931248Z"  horiz-adv-x="1024" />

    
    <glyph glyph-name="bofang1" unicode="&#58934;" d="M512.718 894.451C230.377 894.451 1.494 665.568 1.494 383.226S230.377-128 512.718-128s511.224 228.884 511.224 511.226S795.06 894.45 512.718 894.45z m0-971.325c-254.108 0-460.102 205.996-460.102 460.102S258.61 843.33 512.718 843.33 972.82 637.335 972.82 383.228 766.826-76.874 512.718-76.874z m232.06 496.332c-79.556 54.133-223.815 135.157-305.959 185.36-33.678 21.239-61.996 12.71-64.717-24.8-1.971-100.468 0-294.317 0-396.523 1.711-38.08 35.282-43.101 64.419-27.812 82.05 49.71 223.071 135.147 305.536 185.11-0.54 0.327 62.614 35.06 0.72 78.665z"  horiz-adv-x="1024" />

    
    <glyph glyph-name="zhibobofangshexiangjiguankanxianxing" unicode="&#58985;" d="M816.128 524.8l138.752 67.072c15.36 7.168 33.28 1.024 40.448-14.336 2.048-4.096 3.072-8.704 3.072-13.312v-335.872c0-16.896-13.824-30.208-30.208-30.208-4.608 0-9.216 1.024-13.312 3.072l-138.752 67.072v-129.536c0-33.792-27.136-60.928-60.928-60.928H86.528c-33.792 0-60.928 27.136-60.928 60.928v486.4C25.6 658.944 52.736 686.08 86.528 686.08h668.672c33.792 0 60.928-27.136 60.928-60.928v-100.352z m0-188.416l119.296-57.856V514.56l-119.296-57.856v-120.32zM86.528 625.152v-486.4h668.672v486.4H86.528z m243.2-356.352V512c0 16.896 13.824 30.208 30.208 30.208 5.12 0 10.24-1.536 14.848-4.096l212.992-121.856c14.336-8.192 19.456-27.136 11.264-41.472-2.56-4.608-6.656-8.704-11.264-11.264l-212.992-121.856c-14.336-8.192-33.28-3.072-41.472 11.264-2.56 5.632-3.584 10.752-3.584 15.872z m60.928 190.976v-138.24L512 390.656 390.656 459.776z"  horiz-adv-x="1024" />

    
    <glyph glyph-name="meirituijian-" unicode="&#58955;" d="M104.533333 345.6c-12.8 14.933333-10.666667 36.266667 2.133334 51.2l405.333333 405.333333c12.8 12.8 32 12.8 44.8 0l362.666667-384c12.8-12.8 12.8-36.266667 0-51.2s-32-14.933333-46.933334 0L533.333333 725.333333 149.333333 341.333333c-6.4-6.4-14.933333-8.533333-21.333333-8.533333-8.533333 0-17.066667 4.266667-23.466667 12.8zM413.866667-2.133333h-36.266667c-83.2 0-149.333333 76.8-149.333333 170.666666V441.6c0 19.2 12.8 36.266667 29.866666 36.266667 17.066667 0 29.866667-14.933333 29.866667-36.266667V170.666667c0-55.466667 38.4-100.266667 87.466667-100.266667h36.266666c17.066667 0 29.866667-14.933333 29.866667-36.266667 2.133333-19.2-12.8-36.266667-27.733333-36.266666M627.2-2.133333c-17.066667 0-32 14.933333-32 36.266666 0 19.2 14.933333 36.266667 32 36.266667 51.2 0 91.733333 44.8 91.733333 100.266667V441.6c0 19.2 14.933333 36.266667 32 36.266667s32-14.933333 32-36.266667V170.666667c0-96-68.266667-172.8-155.733333-172.8M428.8-25.6c-19.2 0-34.133333 17.066667-34.133333 38.4v192c0 21.333333 14.933333 38.4 34.133333 38.4H576c19.2 0 34.133333-17.066667 34.133333-38.4s-14.933333-38.4-34.133333-38.4h-115.2v-155.733333c2.133333-21.333333-12.8-36.266667-32-36.266667"  horiz-adv-x="1024" />

    
    <glyph glyph-name="wodehaoyou" unicode="&#59147;" d="M919.3 123.8c-44.7 120-138.8 214.7-254 259.5 56.1 46.2 92.2 117.2 92.2 196.7 0 138.9-110.1 252-245.4 252S266.7 718.9 266.7 580c0-79.4 36-150.3 92-196.5-115.9-44.7-208.8-138.7-253.8-259.7L103 119v-99c0-22.5 8.5-43.5 24-59.4 15.4-15.9 36-24.6 57.9-24.6h654.5c21.9 0 42.4 8.7 57.8 24.6 15.5 15.9 24 37 24 59.4v99l-1.9 4.8zM321.1 580c0 108.1 85.6 196 190.9 196 105.3 0 190.9-87.9 190.9-196S617.3 384 512 384c-105.3 0-190.9 87.9-190.9 196z m545.4-560c0-7.5-2.8-14.5-8-19.8-5.1-5.3-12-8.2-19.3-8.2H184.8c-7.3 0-14.1 2.9-19.3 8.2-5.1 5.3-8 12.3-8 19.8v88.5c45.9 118.7 144.8 207 265.3 236.7 27.7-11.1 57.7-17.2 89.2-17.2 31.4 0 61.5 6.1 89.1 17.2 119.3-29.5 219.7-118.7 265.4-236.7V20z"  horiz-adv-x="1024" />

    
    <glyph glyph-name="wodehaoyou1" unicode="&#59202;" d="M658 745.8m-32 0a32 32 0 1 1 64 0 32 32 0 1 1-64 0ZM742.8 352.1c-0.5 0.3-1.1 0.7-1.6 1-1 0.6-2.1 1.2-3.1 1.9-1.4 0.8-2.7 1.6-4.1 2.4-0.9 0.5-1.8 1.1-2.8 1.6-2.2 1.2-4.3 2.4-6.5 3.6-0.9 0.5-1.9 1-2.8 1.5-1.4 0.7-2.8 1.5-4.2 2.2-1.1 0.6-2.2 1.1-3.2 1.7-1.3 0.7-2.6 1.3-4 2-1.1 0.5-2.2 1.1-3.3 1.6-1.5 0.7-3.1 1.5-4.7 2.2-1.6 0.7-3.2 1.5-4.8 2.2-1.5 0.7-2.9 1.3-4.4 2-1.2 0.5-2.4 1.1-3.6 1.6-1.2 0.5-2.4 1-3.6 1.6-1.3 0.5-2.5 1.1-3.8 1.6l-3.6 1.5-3.9 1.5c-2.2 0.9-4.4 1.7-6.6 2.5-1.4 0.5-2.7 1-4.1 1.5-1.1 0.4-2.2 0.8-3.4 1.2l-4.2 1.5c-1.1 0.4-2.2 0.8-3.3 1.1-1.4 0.5-2.8 0.9-4.3 1.4-1.1 0.4-2.3 0.7-3.4 1.1-1.2 0.4-2.5 0.8-3.7 1.2 0.5 0.3 1 0.7 1.5 1 1.2 0.8 2.4 1.6 3.5 2.4 0.9 0.7 1.9 1.3 2.8 2 1.3 1 2.7 1.9 4 2.9 0.7 0.5 1.4 1.1 2.1 1.6l3.9 3c0.7 0.5 1.4 1.1 2 1.6 1.3 1.1 2.6 2.2 3.9 3.2 0.6 0.5 1.3 1.1 1.9 1.6 1.3 1.2 2.6 2.3 4 3.5 0.6 0.6 1.2 1.1 1.9 1.7 1.3 1.2 2.6 2.5 3.9 3.7l1.8 1.8c1.4 1.3 2.7 2.7 4 4.1 0.5 0.5 0.9 1 1.4 1.5 1.3 1.4 2.7 2.8 4 4.3 0.4 0.5 0.8 0.9 1.2 1.4 1.3 1.5 2.6 2.9 3.8 4.4 0.4 0.4 0.8 0.9 1.1 1.4 1.3 1.5 2.5 3.1 3.8 4.7 0.3 0.4 0.7 0.8 1 1.3 1.3 1.7 2.5 3.3 3.8 5 0.3 0.4 0.5 0.7 0.8 1.1 1.3 1.8 2.6 3.6 3.9 5.5 0.2 0.3 0.4 0.6 0.6 0.8 1.3 2 2.6 3.9 3.9 5.9 0.2 0.3 0.3 0.5 0.5 0.8 1.2 1.9 2.4 3.8 3.5 5.8 0.2 0.3 0.4 0.7 0.6 1 1.1 1.9 2.2 3.8 3.2 5.7 0.2 0.3 0.4 0.7 0.6 1 1 1.9 2.1 3.9 3.1 5.9l0.3 0.6c0.1 0.2 0.2 0.4 0.3 0.5 0.8 1.6 1.6 3.3 2.4 4.9 0.2 0.4 0.4 0.8 0.6 1.3 0.8 1.7 1.5 3.3 2.2 5 0.2 0.4 0.3 0.8 0.5 1.2 0.7 1.7 1.5 3.5 2.2 5.2 0.1 0.3 0.2 0.6 0.4 0.9 0.7 1.7 1.3 3.4 2 5.1 0.1 0.2 0.2 0.5 0.3 0.7 0.7 1.8 1.3 3.6 1.9 5.5 0.1 0.4 0.2 0.7 0.4 1.1 0.6 1.8 1.2 3.6 1.7 5.4 0.1 0.4 0.2 0.8 0.4 1.2 0.5 1.8 1.1 3.6 1.6 5.4l0.3 1.2c0.5 1.8 1 3.7 1.4 5.5 0.1 0.4 0.2 0.7 0.3 1.1 0.5 1.9 0.9 3.8 1.3 5.8 0.1 0.3 0.1 0.5 0.2 0.8l1.2 6c0 0.1 0 0.2 0.1 0.3 0.4 2.1 0.7 4.1 1 6.2 0 0.3 0.1 0.5 0.1 0.8 0.3 2 0.6 4 0.8 6 0 0.3 0.1 0.7 0.1 1l0.6 6c0 0.4 0.1 0.7 0.1 1.1 0.2 2 0.3 4 0.4 6.1 0 0.3 0 0.6 0.1 1l0.3 6.3v0.7c0.1 2.2 0.1 4.4 0.1 6.7 0 38.1-9 74.1-25 106l-57.2-28.6c11.9-23.7 18.2-50.1 18.2-77.4 0-1.6 0-3.2-0.1-4.8 0-0.5 0-1-0.1-1.5 0-1.1-0.1-2.2-0.1-3.2 0-0.6-0.1-1.2-0.1-1.7-0.1-1-0.1-2-0.2-3 0-0.6-0.1-1.2-0.1-1.8-0.1-1-0.2-2.1-0.3-3.1-0.1-0.5-0.1-1.1-0.2-1.6-0.1-1.2-0.3-2.5-0.5-3.7 0-0.3-0.1-0.6-0.1-0.9-0.2-1.6-0.5-3.1-0.7-4.7-0.1-0.3-0.1-0.6-0.2-0.9-0.2-1.2-0.5-2.5-0.7-3.7l-0.3-1.5c-0.2-1.1-0.5-2.1-0.7-3.2-0.1-0.5-0.2-1-0.4-1.6-0.3-1-0.5-2.1-0.8-3.1-0.1-0.5-0.3-1-0.4-1.5-0.3-1.1-0.6-2.3-1-3.4-0.1-0.4-0.2-0.7-0.3-1.1-0.9-3-1.9-6-3-9-0.1-0.3-0.3-0.7-0.4-1-0.4-1.1-0.8-2.2-1.3-3.3-0.2-0.4-0.3-0.9-0.5-1.3-0.4-1-0.8-2.1-1.3-3.1-0.2-0.4-0.4-0.9-0.6-1.3-0.5-1.1-1-2.2-1.4-3.2-0.2-0.3-0.3-0.7-0.5-1-0.6-1.4-1.3-2.8-2-4.1v-0.1c-0.3-0.5-0.5-1-0.8-1.5-0.3-0.7-0.7-1.3-1-2-0.3-0.5-0.5-1-0.8-1.5-0.4-0.7-0.7-1.3-1.1-2-0.3-0.5-0.5-0.9-0.8-1.4-0.4-0.7-0.9-1.5-1.3-2.2-0.2-0.4-0.4-0.7-0.7-1.1-1.3-2.2-2.7-4.4-4.2-6.6l-0.6-0.9c-0.5-0.8-1.1-1.6-1.7-2.4-0.2-0.3-0.5-0.7-0.7-1-0.5-0.8-1.1-1.5-1.6-2.3-0.2-0.3-0.5-0.6-0.7-1-0.6-0.9-1.3-1.7-2-2.6-0.1-0.2-0.3-0.4-0.4-0.6-0.8-1-1.7-2.1-2.5-3.1-0.2-0.2-0.3-0.4-0.5-0.6l-2.1-2.4c-0.3-0.3-0.6-0.7-0.8-1-0.6-0.7-1.2-1.4-1.8-2-0.3-0.3-0.6-0.7-0.9-1-0.6-0.7-1.3-1.4-1.9-2-0.3-0.3-0.6-0.6-0.8-0.9-0.9-1-1.8-1.9-2.8-2.8-1-1-2.1-2.1-3.2-3.1-0.5-0.4-0.9-0.9-1.4-1.3-0.6-0.6-1.2-1.1-1.8-1.7-0.5-0.5-1.1-1-1.6-1.4-0.6-0.5-1.1-1-1.7-1.5-0.6-0.5-1.2-1-1.7-1.5s-1.1-0.9-1.6-1.4c-0.6-0.5-1.2-1-1.8-1.4-0.5-0.4-1.1-0.9-1.6-1.3-0.6-0.5-1.2-0.9-1.8-1.4-0.6-0.4-1.1-0.8-1.7-1.2-0.6-0.5-1.2-0.9-1.9-1.3-0.6-0.4-1.1-0.8-1.7-1.2-0.6-0.4-1.2-0.9-1.9-1.3-0.6-0.4-1.2-0.8-1.7-1.2-0.6-0.4-1.2-0.8-1.9-1.2-0.6-0.4-1.2-0.8-1.8-1.1-0.6-0.4-1.2-0.8-1.9-1.2-0.6-0.4-1.2-0.7-1.9-1.1-0.6-0.4-1.2-0.7-1.9-1.1-0.6-0.4-1.3-0.7-1.9-1.1-0.6-0.3-1.2-0.7-1.8-1-0.7-0.4-1.3-0.7-2-1.1l-1.8-0.9c-0.7-0.4-1.4-0.7-2.1-1.1-0.6-0.3-1.2-0.6-1.7-0.8-0.8-0.4-1.5-0.7-2.3-1.1-0.5-0.2-1.1-0.5-1.6-0.7-0.8-0.4-1.7-0.7-2.5-1.1l-1.5-0.6c-0.9-0.4-1.9-0.8-2.9-1.2-0.4-0.2-0.8-0.3-1.1-0.5-0.6-0.2-1.3-0.5-1.9-0.7-0.6-0.2-1.3-0.5-1.9-0.7l-1.8-0.6c-0.7-0.2-1.4-0.5-2.1-0.7-0.6-0.2-1.1-0.4-1.7-0.6-0.7-0.2-1.5-0.5-2.2-0.7-0.6-0.2-1.1-0.3-1.7-0.5-0.8-0.2-1.5-0.5-2.3-0.7-0.5-0.2-1.1-0.3-1.6-0.4-0.8-0.2-1.6-0.4-2.3-0.6-0.5-0.1-1.1-0.3-1.6-0.4l-2.4-0.6c-0.5-0.1-1.1-0.2-1.6-0.4-0.8-0.2-1.6-0.3-2.4-0.5-0.6-0.1-1.1-0.2-1.7-0.3-0.8-0.2-1.6-0.3-2.4-0.4-0.6-0.1-1.1-0.2-1.7-0.3-0.8-0.1-1.6-0.3-2.4-0.4-0.6-0.1-1.1-0.2-1.7-0.3l-2.4-0.3c-0.6-0.1-1.1-0.1-1.7-0.2-0.8-0.1-1.6-0.2-2.5-0.3-0.6-0.1-1.1-0.1-1.7-0.2-0.8-0.1-1.7-0.1-2.5-0.2-0.6 0-1.1-0.1-1.7-0.1-0.9-0.1-1.7-0.1-2.6-0.2-0.5 0-1.1-0.1-1.6-0.1-0.9 0-1.9-0.1-2.8-0.1h-1.4c-1.4 0-2.8-0.1-4.2-0.1s-2.8 0-4.2 0.1h-1.4c-0.9 0-1.9 0.1-2.8 0.1-0.5 0-1.1 0.1-1.6 0.1-0.9 0-1.7 0.1-2.6 0.2-0.6 0-1.1 0.1-1.7 0.1-0.8 0.1-1.7 0.1-2.5 0.2-0.6 0.1-1.1 0.1-1.7 0.2-0.8 0.1-1.6 0.2-2.5 0.3-0.6 0.1-1.1 0.1-1.7 0.2l-2.4 0.3c-0.6 0.1-1.1 0.2-1.7 0.3-0.8 0.1-1.6 0.3-2.4 0.4-0.6 0.1-1.1 0.2-1.7 0.3-0.8 0.1-1.6 0.3-2.4 0.4-0.6 0.1-1.1 0.2-1.7 0.3-0.8 0.2-1.6 0.3-2.4 0.5-0.6 0.1-1.1 0.2-1.6 0.4l-2.4 0.6c-0.5 0.1-1.1 0.3-1.6 0.4-0.8 0.2-1.6 0.4-2.3 0.6-0.5 0.1-1.1 0.3-1.6 0.4-0.8 0.2-1.5 0.4-2.3 0.7-0.6 0.2-1.1 0.3-1.7 0.5-0.7 0.2-1.5 0.5-2.2 0.7-0.6 0.2-1.1 0.4-1.7 0.6-0.7 0.2-1.4 0.5-2.1 0.7l-1.8 0.6c-0.6 0.2-1.3 0.5-1.9 0.7-0.6 0.2-1.3 0.5-1.9 0.7-0.4 0.1-0.8 0.3-1.1 0.5-1 0.4-1.9 0.8-2.9 1.2l-1.5 0.6c-0.8 0.4-1.7 0.7-2.5 1.1-0.5 0.2-1.1 0.5-1.6 0.7-0.8 0.3-1.5 0.7-2.3 1.1-0.6 0.3-1.2 0.6-1.7 0.8-0.7 0.3-1.4 0.7-2.1 1.1l-1.8 0.9c-0.7 0.4-1.3 0.7-2 1.1-0.6 0.3-1.2 0.7-1.8 1-0.6 0.4-1.3 0.7-1.9 1.1-0.6 0.4-1.2 0.7-1.9 1.1-0.6 0.4-1.2 0.7-1.9 1.1-0.6 0.4-1.3 0.8-1.9 1.2-0.6 0.4-1.2 0.8-1.8 1.1-0.6 0.4-1.3 0.8-1.9 1.2-0.6 0.4-1.2 0.8-1.7 1.2-0.6 0.4-1.2 0.8-1.9 1.3-0.6 0.4-1.1 0.8-1.7 1.2-0.6 0.4-1.2 0.9-1.9 1.3-0.6 0.4-1.1 0.8-1.7 1.2-0.6 0.5-1.2 0.9-1.8 1.4-0.5 0.4-1.1 0.9-1.6 1.3-0.6 0.5-1.2 0.9-1.8 1.4-0.5 0.4-1.1 0.9-1.6 1.4-0.6 0.5-1.2 1-1.7 1.5-0.6 0.5-1.1 1-1.7 1.5-0.5 0.5-1.1 1-1.6 1.4-0.6 0.6-1.2 1.1-1.8 1.7-0.5 0.4-0.9 0.9-1.4 1.3-1.1 1-2.1 2-3.2 3.1l-2.8 2.8c-0.3 0.3-0.6 0.6-0.8 0.9-0.6 0.7-1.3 1.3-1.9 2-0.3 0.3-0.6 0.7-0.9 1-0.6 0.7-1.2 1.3-1.8 2-0.3 0.3-0.6 0.6-0.8 1l-2.1 2.4c-0.2 0.2-0.3 0.4-0.5 0.6-0.8 1-1.7 2.1-2.5 3.1-0.1 0.2-0.3 0.4-0.4 0.6-0.7 0.8-1.3 1.7-2 2.6-0.2 0.3-0.5 0.6-0.7 1-0.6 0.8-1.1 1.5-1.6 2.3-0.2 0.3-0.5 0.7-0.7 1-0.6 0.8-1.1 1.6-1.7 2.4l-0.6 0.9-4.2 6.6c-0.2 0.4-0.4 0.7-0.7 1.1-0.4 0.7-0.9 1.5-1.3 2.2-0.3 0.4-0.5 0.9-0.8 1.4-0.4 0.7-0.7 1.3-1.1 2-0.3 0.5-0.5 1-0.8 1.5-0.3 0.7-0.7 1.3-1 2-0.3 0.5-0.5 1-0.8 1.5v0.1c-0.7 1.4-1.3 2.7-2 4.1-0.2 0.3-0.3 0.7-0.5 1-0.5 1.1-1 2.1-1.4 3.2-0.2 0.4-0.4 0.9-0.5 1.3-0.4 1-0.9 2.1-1.3 3.1-0.2 0.4-0.3 0.9-0.5 1.3-0.4 1.1-0.9 2.2-1.3 3.3-0.1 0.3-0.3 0.7-0.4 1-1.1 3-2.1 5.9-3 9-0.1 0.4-0.2 0.7-0.3 1.1-0.3 1.1-0.7 2.3-1 3.4-0.1 0.5-0.3 1-0.4 1.5-0.3 1-0.5 2.1-0.8 3.1-0.1 0.5-0.2 1-0.4 1.6-0.2 1-0.5 2.1-0.7 3.2l-0.3 1.5c-0.2 1.2-0.5 2.5-0.7 3.7-0.1 0.3-0.1 0.6-0.2 0.9-0.3 1.6-0.5 3.1-0.7 4.7 0 0.3-0.1 0.6-0.1 0.9-0.2 1.2-0.3 2.5-0.5 3.7-0.1 0.5-0.1 1.1-0.2 1.6-0.1 1-0.2 2.1-0.3 3.1-0.1 0.6-0.1 1.2-0.2 1.8-0.1 1-0.2 2-0.2 3 0 0.6-0.1 1.2-0.1 1.7-0.1 1.1-0.1 2.2-0.1 3.2 0 0.5 0 1-0.1 1.5 0 1.6-0.1 3.2-0.1 4.8 0 1.6 0 3.2 0.1 4.8 0 0.5 0 1 0.1 1.5 0 1.1 0.1 2.2 0.1 3.2 0 0.6 0.1 1.2 0.1 1.8 0.1 1 0.1 2 0.2 3 0 0.6 0.1 1.2 0.2 1.8 0.1 1 0.2 2.1 0.3 3.1 0.1 0.5 0.1 1.1 0.2 1.6 0.1 1.2 0.3 2.4 0.5 3.6 0 0.3 0.1 0.7 0.1 1 0.2 1.6 0.5 3.1 0.7 4.6 0.1 0.3 0.1 0.7 0.2 1 0.2 1.2 0.4 2.4 0.7 3.6l0.3 1.5c0.2 1 0.4 2 0.7 3.1 0.1 0.5 0.3 1.1 0.4 1.6 0.2 1 0.5 2 0.8 3 0.1 0.5 0.3 1 0.4 1.6 0.3 1.1 0.6 2.2 0.9 3.2 0.1 0.4 0.2 0.8 0.4 1.2 0.9 3 1.9 5.9 2.9 8.9 0.2 0.4 0.3 0.9 0.5 1.3 0.4 1 0.8 2 1.2 3.1l0.6 1.5c0.4 0.9 0.8 1.9 1.2 2.8 0.2 0.5 0.4 1.1 0.7 1.6 0.4 0.9 0.8 1.8 1.2 2.8 0.2 0.5 0.5 1 0.7 1.5 0.5 1 1 2.1 1.5 3.1 8.3 16.7 19.3 32.2 32.9 45.8C422.4 750.1 465.8 768 512 768c21.8 0 43-4 62.7-11.7L597.9 816c-26.6 10.3-55.6 16-85.9 16-92.7 0-173-53.3-211.8-130.9-0.2-0.3-0.3-0.7-0.5-1-0.7-1.4-1.3-2.7-2-4.1-0.3-0.6-0.6-1.2-0.8-1.8-0.6-1.4-1.2-2.7-1.8-4.1-0.3-0.6-0.5-1.2-0.8-1.8-0.6-1.5-1.3-3-1.9-4.5-0.2-0.5-0.4-0.9-0.6-1.4-0.8-2-1.6-4-2.3-6v-0.1c-0.7-2-1.4-3.9-2.1-5.9-0.2-0.6-0.4-1.2-0.6-1.9-0.5-1.4-0.9-2.8-1.3-4.2-0.2-0.8-0.5-1.5-0.7-2.3-0.4-1.3-0.8-2.6-1.1-3.9l-0.6-2.4c-0.3-1.3-0.7-2.6-1-3.9l-0.6-2.4c-0.3-1.4-0.6-2.8-1-4.3-0.1-0.7-0.3-1.3-0.4-2l-1.2-6.3c0-0.2-0.1-0.3-0.1-0.5-0.3-2-0.7-3.9-1-5.9-0.1-0.7-0.2-1.5-0.3-2.2-0.2-1.4-0.4-2.8-0.6-4.3-0.1-0.8-0.2-1.7-0.3-2.5-0.1-1.3-0.3-2.7-0.4-4-0.1-0.9-0.2-1.7-0.2-2.6-0.1-1.4-0.2-2.7-0.3-4.1-0.1-0.8-0.1-1.7-0.2-2.5-0.1-1.5-0.1-3-0.2-4.5 0-0.7-0.1-1.4-0.1-2.2-0.1-2.2-0.1-4.4-0.1-6.7 0-2.2 0-4.4 0.1-6.7v-0.7l0.3-6.3c0-0.3 0-0.6 0.1-1 0.1-2 0.3-4.1 0.4-6.1 0-0.4 0.1-0.7 0.1-1.1l0.6-6c0-0.3 0.1-0.7 0.1-1 0.2-2 0.5-4 0.8-6 0-0.3 0.1-0.5 0.1-0.8 0.3-2.1 0.6-4.1 1-6.2 0-0.1 0-0.2 0.1-0.3 0.4-2 0.7-4 1.2-6 0.1-0.3 0.1-0.5 0.2-0.8 0.4-1.9 0.8-3.9 1.3-5.8 0.1-0.4 0.2-0.7 0.3-1.1 0.4-1.9 0.9-3.7 1.4-5.5l0.3-1.2c0.5-1.8 1-3.6 1.6-5.4 0.1-0.4 0.2-0.8 0.4-1.2 0.6-1.8 1.1-3.6 1.7-5.4 0.1-0.4 0.2-0.7 0.4-1.1 0.6-1.8 1.3-3.7 1.9-5.5 0.1-0.2 0.2-0.5 0.3-0.7 0.6-1.7 1.3-3.4 2-5.1 0.1-0.3 0.2-0.6 0.4-0.9 0.7-1.7 1.4-3.5 2.2-5.2 0.2-0.4 0.3-0.8 0.5-1.2 0.7-1.7 1.5-3.3 2.2-5 0.2-0.4 0.4-0.8 0.6-1.3 0.8-1.6 1.6-3.3 2.4-4.9 0.1-0.2 0.2-0.4 0.3-0.5l0.3-0.6c1-2 2-3.9 3.1-5.9 0.2-0.3 0.4-0.7 0.6-1 1.1-1.9 2.1-3.8 3.2-5.7 0.2-0.3 0.4-0.7 0.6-1 1.1-1.9 2.3-3.9 3.5-5.8 0.2-0.3 0.3-0.5 0.5-0.8 1.3-2 2.6-4 3.9-5.9 0.2-0.3 0.4-0.6 0.6-0.8 1.3-1.9 2.6-3.7 3.9-5.5 0.3-0.4 0.5-0.7 0.8-1.1 1.2-1.7 2.5-3.4 3.8-5 0.3-0.4 0.7-0.8 1-1.3 1.2-1.6 2.5-3.1 3.8-4.7 0.4-0.5 0.7-0.9 1.1-1.4 1.3-1.5 2.5-3 3.8-4.4 0.4-0.5 0.8-0.9 1.2-1.4 1.3-1.4 2.6-2.9 4-4.3 0.5-0.5 0.9-1 1.4-1.5 1.3-1.4 2.7-2.7 4-4.1l1.8-1.8c1.3-1.3 2.6-2.5 3.9-3.7 0.6-0.6 1.2-1.1 1.9-1.7 1.3-1.2 2.6-2.4 4-3.5 0.6-0.5 1.2-1.1 1.9-1.6 1.3-1.1 2.6-2.2 3.9-3.2 0.7-0.6 1.4-1.1 2-1.6l3.9-3c0.7-0.5 1.4-1.1 2.1-1.6 1.3-1 2.6-1.9 4-2.9 0.9-0.7 1.9-1.3 2.8-2 1.2-0.8 2.3-1.6 3.5-2.4 0.5-0.3 1-0.7 1.5-1-1.2-0.4-2.5-0.8-3.7-1.2-1.1-0.4-2.3-0.7-3.4-1.1-1.4-0.5-2.8-0.9-4.3-1.4-1.1-0.4-2.2-0.7-3.3-1.1l-4.2-1.5c-1.1-0.4-2.3-0.8-3.4-1.2-1.4-0.5-2.7-1-4.1-1.5-2.2-0.8-4.4-1.7-6.6-2.5l-3.9-1.5-3.6-1.5c-1.3-0.5-2.5-1.1-3.8-1.6-1.2-0.5-2.4-1-3.6-1.6-1.2-0.5-2.4-1.1-3.6-1.6-1.5-0.7-3-1.3-4.4-2-1.6-0.7-3.2-1.5-4.8-2.2-1.6-0.7-3.1-1.5-4.7-2.2-1.1-0.5-2.2-1.1-3.3-1.6-1.3-0.7-2.7-1.3-4-2-1.1-0.5-2.2-1.1-3.2-1.7-1.4-0.7-2.8-1.5-4.2-2.2-0.9-0.5-1.9-1-2.8-1.5-2.2-1.2-4.4-2.4-6.5-3.6-0.9-0.5-1.8-1.1-2.8-1.6-1.4-0.8-2.8-1.6-4.1-2.4-1-0.6-2.1-1.2-3.1-1.9-0.6-0.3-1.1-0.6-1.7-1C151 273.7 64 131 64-31.9v-0.1c0-17.7 14.3-32 32-32s32 14.3 32 32v0.1c0 25.9 2.5 51.5 7.6 76.4 5 25 12.6 49.4 22.6 73 19.3 45.7 47 86.8 82.3 122.1s76.4 63 122.1 82.3c47.3 20 97.6 30.2 149.4 30.2s102.1-10.1 149.5-30.2c45.7-19.3 86.8-47 122.1-82.3s63-76.4 82.3-122.1c10-23.7 17.5-48 22.6-73 5-25 7.6-50.5 7.6-76.4v-0.1c0-17.7 14.3-32 32-32s32 14.3 32 32v0.1C960 131 873 273.7 742.8 352.1z"  horiz-adv-x="1024" />

    
    <glyph glyph-name="huiyuan" unicode="&#58931;" d="M512.1 801.2m-47.6 0a47.6 47.6 0 1 1 95.2 0 47.6 47.6 0 1 1-95.2 0ZM83.7 587.1m-47.6 0a47.6 47.6 0 1 1 95.2 0 47.6 47.6 0 1 1-95.2 0ZM940.3 587.1m-47.6 0a47.6 47.6 0 1 1 95.2 0 47.6 47.6 0 1 1-95.2 0ZM179.8 38.7l2.4-12.8c6.3-33.8 35.8-58.3 70.2-58.3h519.4c34.3 0 63.8 24.5 70.2 58.2l2.4 12.9H179.8zM876.9 480.3l-141.1-126c-14.1-12.6-36.3-7.7-43.9 9.6l-153.8 298c-9.7 22.1-41.1 22.2-50.8 0L333.6 365.8c-7.6-17.2-29.7-22.1-43.7-9.6L147.5 481.7c-21.4 18.9-53.9-3-44.6-29.9l63.5-341.7h691.2l63.9 340.3c9.6 27.1-23.2 49-44.6 29.9z"  horiz-adv-x="1024" />

    
    <glyph glyph-name="meirituijian" unicode="&#58881;" d="M349.198717-19.506355h474.598884c29.920893 0 54.246823 24.08267 54.246822 53.881934V101.758404c22.501485 0 40.624302 18.122817 40.624303 40.502672v323.534862c0 29.799264-24.325929 53.881934-54.246823 53.881933H651.813279c1.581185 48.773489-1.216296 144.73928-41.597339 201.418696-26.758522 37.461931-74.558974 62.882528-74.558974 62.882528-27.974819 10.46015-68.84238-5.230075-68.84238-35.029338 0 0 13.987409-103.50683-23.352892-166.875876-16.298373-27.4883-36.245635-47.922081-53.517045-62.39601H159.456468c-29.920893 0-54.246823-24.08267-54.246823-53.881933v-431.420359c0-29.920893 24.2043-53.881934 54.246823-53.881934h189.742249z m0 485.302293v-431.420359H206.405511c-26.028745 0-46.949044 19.217484-46.949043 43.178525V422.739043c0 23.839411 21.041929 43.056895 46.949043 43.056895h142.793206z m366.105238-107.763868c0-14.838817 12.162965-27.001782 27.123412-27.001781h121.994536V263.525834H742.427367c-14.960447 0-27.123411-11.919705-27.123412-27.001781 0-14.838817 12.162965-27.001782 27.123412-27.001782h121.994536v-54.003563H742.427367c-14.960447 0-27.123411-11.919705-27.123412-26.880152 0-14.838817 12.162965-27.001782 27.123412-27.001782h81.370234V77.432474c0-24.08267-21.163559-43.300154-47.070674-43.300154H403.44554V466.039197c6.93289 4.378667 69.815418 62.639268 76.261789 72.248011 39.772895 59.841786 40.624302 160.916023 40.624302 160.916023 0 29.799264-3.52726 29.920893 24.569189 19.460743 0 0 53.152156-81.735123 48.04371-198.986103-0.486519-10.095261-0.12163-27.4883 4.865186-37.097042 6.446371-12.162965 13.014372-16.784891 42.935266-16.784891h176.484618c26.028745 0 46.949044-19.339114 46.949044-43.056895v-37.826821H742.305737c-14.838817 0.12163-27.001782-12.162965-27.001782-26.880152zM227.204181 142.382706c0-14.960447 12.162965-27.001782 27.123411-27.001782s27.123411 11.919705 27.123412 27.001782c0 14.838817-12.041335 27.001782-27.123412 27.001781-14.960447-0.12163-27.123411-12.162965-27.123411-27.001781z m0 0"  horiz-adv-x="1024" />

    
    <glyph glyph-name="search" unicode="&#58921;" d="M486.4 250.311111c-85.333333 0-153.6 68.266667-153.6 153.6s68.266667 153.6 153.6 153.6 153.6-68.266667 153.6-153.6-71.111111-153.6-153.6-153.6z m0 275.911111c-68.266667 0-125.155556-56.888889-125.155556-125.155555 0-68.266667 56.888889-125.155556 125.155556-125.155556 68.266667 0 125.155556 56.888889 125.155556 125.155556-2.844444 71.111111-56.888889 125.155556-125.155556 125.155555zM676.977778 213.333333c-2.844444 0-8.533333 0-11.377778 2.844445l-85.333333 85.333333c-5.688889 5.688889-5.688889 14.222222 0 19.911111s14.222222 5.688889 19.911111 0l85.333333-85.333333c5.688889-5.688889 5.688889-14.222222 0-19.911111-2.844444-2.844444-5.688889-2.844444-8.533333-2.844445z"  horiz-adv-x="1024" />

    
    <glyph glyph-name="paixingbang" unicode="&#58883;" d="M1002.62-85.269L21.3547-85.269C9.55733-85.269 0-94.827 0-106.62 0-118.44000000000005 9.55733-128 21.3547-128l981.269 0C1014.46-128 1024-118.44000000000005 1024-106.62 1024-94.827 1014.46-85.269 1002.62-85.269ZM757.291-29.866999999999962l245.333 0c11.84 0 21.376 9.55733 21.3547 21.376L1023.98 334.933c0 11.8187-9.51467 21.376-21.376 21.376L757.291 356.30899999999997c-11.84 0-21.3547-9.55733-21.3547-21.376l0-343.445C735.936-20.30899999999997 745.451-29.866999999999962 757.291-29.866999999999962ZM778.667 313.57899999999995l202.581 0 0-300.715L778.667 12.864000000000032 778.667 313.57899999999995ZM389.333-29.866999999999962l245.312 0c11.8613 0 21.376 9.55733 21.376 21.376L656.021 874.6453C656.021 886.44267 646.507 896 634.645 896L389.333 896c-11.7973 0-21.3547-9.55733-21.3547-21.3547l0-883.136C367.979-20.30899999999997 377.536-29.866999999999962 389.333-29.866999999999962ZM410.709 853.2693l202.581 0 0-840.405-202.581 0L410.709 853.2693ZM21.3547-29.866999999999962l245.333 0c11.7973 0 21.376 9.55733 21.3333 21.376L288.021 531.2c0 11.776-9.57867 21.3547-21.3547 21.3547L21.3547 552.5550000000001C9.55733 552.5550000000001 0 542.9970000000001 0 531.2l0-539.691C0-20.30899999999997 9.55733-29.866999999999962 21.3547-29.866999999999962ZM42.7307 509.824l202.581 0 0-496.939L42.7307 12.884999999999991 42.7307 509.824Z"  horiz-adv-x="1024" />

    
    <glyph glyph-name="pinglun" unicode="&#58884;" d="M330.426 488.312c-25.123 0-45.4892-21.1209-45.4892-47.1858 0-26.0681 20.3662-47.1907 45.4892-47.1907 25.1197 0 45.4858 21.1226 45.4858 47.1907C375.912 467.19 355.545 488.312 330.426 488.312L330.426 488.312ZM512.38 488.312c-25.123 0-45.49-21.1209-45.49-47.1858 0-26.0681 20.3703-47.1907 45.49-47.1907 25.1197 0 45.4867 21.1226 45.4867 47.1907C557.866 467.19 537.5 488.312 512.38 488.312L512.38 488.312ZM694.335 488.312c-25.1247 0-45.49-21.1209-45.49-47.1858 0-26.0681 20.3653-47.1907 45.49-47.1907 25.1197 0 45.4851 21.1226 45.4851 47.1907C739.82 467.19 719.455 488.312 694.335 488.312L694.335 488.312ZM785.31 724.237L239.447 724.237c-50.2394 0-90.9747-42.2592-90.9747-94.3772l0-353.887c0-52.1213 41.6462-100.162 93.0437-100.162l138.639 0c24.1672-25.7451 124.186-129.292 124.186-129.292 4.4404-4.61919 11.6378-4.61919 16.0791 0 0 0 73.2266 83.027 120.939 129.292l141.883 0c51.3963 0 93.0437 48.0443 93.0437 100.162L876.283 629.8620000000001C876.284 681.98 835.553 724.237 785.31 724.237ZM831.25 275.813c0-26.0945-21.8889-53.4751-47.6249-53.4751L643.898 222.33799999999996c-16.9269 0-32.1424-17.4048-32.1424-17.4048L513.648 103.17700000000002 415.557 204.93399999999997c0 0-18.6845 17.4048-34.6992 17.4048L241.133 222.33799999999996c-25.7368 0-47.6208 27.3806-47.6208 53.4751L193.512 630.1990000000001c0 26.101 20.3942 47.2574 45.5493 47.2574l546.634 0c25.1559 0 45.5551-21.1564 45.5551-47.2574L831.25 275.813ZM830.8 275.975"  horiz-adv-x="1024" />

    
    <glyph glyph-name="zanting1" unicode="&#58935;" d="M512 894.2C230.2 894.2 1.8 665.8 1.8 384s228.4-510.2 510.2-510.2 510.2 228.4 510.2 510.2S793.8 894.2 512 894.2z m0-946.7C270.9-52.5 75.5 142.9 75.5 384S270.9 820.5 512 820.5 948.5 625.1 948.5 384 753.1-52.5 512-52.5zM418 579.6c-21.9 0-39.7-17.8-39.7-39.7v-311.8c0-21.9 17.8-39.7 39.7-39.7 21.9 0 39.7 17.8 39.7 39.7V539.9c0 21.9-17.8 39.7-39.7 39.7zM606 579.6c-21.9 0-39.7-17.8-39.7-39.7v-311.8c0-21.9 17.8-39.7 39.7-39.7 21.9 0 39.7 17.8 39.7 39.7V539.9c0 21.9-17.8 39.7-39.7 39.7z"  horiz-adv-x="1024" />

    
    <glyph glyph-name="search1" unicode="&#58885;" d="M514.56 5.12A427.52 427.52 0 1 0 942.08 432.64a428.032 428.032 0 0 0-427.52-427.52z m0 793.6A366.08 366.08 0 1 1 880.64 432.64 366.5408 366.5408 0 0 1 514.56 798.72zM906.24-102.4a30.72 30.72 0 0 0-23.9104 11.4688l-148.48 184.32a30.72 30.72 0 1 0 47.8208 38.5024l148.48-184.32a30.72 30.72 0 0 0-4.6592-43.1616A30.208 30.208 0 0 0 906.24-102.4z"  horiz-adv-x="1024" />

    
    <glyph glyph-name="pinglun1" unicode="&#59107;" d="M405.9 406.4c-19.6 0-35.5-15.9-35.5-35.5s15.9-35.5 35.5-35.5 35.5 15.9 35.5 35.5c0.1 19.6-15.8 35.5-35.5 35.5zM524.4 406.4c-19.6 0-35.5-15.9-35.5-35.5s15.9-35.5 35.5-35.5 35.5 15.9 35.5 35.5-15.9 35.5-35.5 35.5zM642.7 406.4c-19.6 0-35.5-15.9-35.5-35.5s15.9-35.5 35.5-35.5 35.5 15.9 35.5 35.5c0.1 19.6-15.8 35.5-35.5 35.5zM512.5 714.3C329.4 714.3 181 565.9 181 382.8c0-75.1 25-144.4 67.1-200 16.2-21.3-34.8-88.2-14-105 3.5-2.8 9.4-3.9 16.9-3.9 27.2 0 74.9 14.5 100.5 14.5 5.4 0 9.8-0.6 12.8-2.2 44.6-22.3 94.9-34.9 148.2-34.9 183.1 0 331.5 148.4 331.5 331.5S695.6 714.3 512.5 714.3z m205.1-536.6c-26.7-26.7-57.7-47.6-92.2-62.2-35.7-15.1-73.7-22.8-112.9-22.8-22.9 0-45.7 2.7-67.7 7.9-21.4 5.1-42.2 12.7-61.9 22.6-8.8 4.4-19.1 6.5-31.4 6.5-16.7 0-36.2-3.8-56.8-7.8-4.8-0.9-9.7-1.9-14.6-2.8 10.4 27.7 21.9 61.2 1.1 88.7-18.7 24.7-33.2 51.9-43.1 81.1-10.3 30.1-15.5 61.7-15.5 93.9 0 39.2 7.7 77.2 22.8 112.9 14.6 34.5 35.5 65.6 62.2 92.2 26.7 26.7 57.7 47.6 92.2 62.2 35.7 15.1 73.7 22.8 112.9 22.8s77.2-7.7 112.9-22.8c34.5-14.6 65.6-35.5 92.2-62.2 26.7-26.7 47.6-57.7 62.2-92.2 15.1-35.7 22.8-73.7 22.8-112.9s-7.7-77.2-22.8-112.9c-14.8-34.6-35.7-65.6-62.4-92.2z"  horiz-adv-x="1024" />

    


  </font>
</defs>
</svg>
